<svg id="Layer_1" data-name="Layer 1" xmlns="http://www.w3.org/2000/svg" viewBox="0 0 786.2 270.42"><title>f</title><path d="M710.94,527.34a139.71,139.71,0,0,0,21.45-22.06q10.3-13,26.57-35.87-10.8-12-24.18-12v-1.5q14.61,0,26.37,10.52Q777.4,443.6,789.43,429a144.75,144.75,0,0,1,25.2-24.31Q827.82,395,840.79,395l-53,138h-9.57a126,126,0,0,0-4.57-34.9q-4.59-15.92-12.64-26.3-15.43,21.45-26.44,34.84A138.56,138.56,0,0,1,712,528.84C704.22,534.76,703.51,533.35,710.94,527.34Zm66.19-38.46a98.65,98.65,0,0,1,7.38,27.67L829,401.38q-10,2.73-20.63,12.3a179.75,179.75,0,0,0-20.49,21.92Q778.1,448,763.33,468.32A65.63,65.63,0,0,1,777.13,488.88Z" transform="translate(-559.96 -363.84)" fill="none" stroke="#ce5a67" stroke-miterlimit="10" stroke-width="14"/><path d="M834.44,585.13q-9.09-4.51-13.46-11.61A28.85,28.85,0,0,1,819.82,545a25.26,25.26,0,0,1,9.22-10A25.81,25.81,0,0,1,843,531.3v1.37a23.06,23.06,0,0,0-12.84,3.62,24.26,24.26,0,0,0-8.61,9.49,27.28,27.28,0,0,0-3,12.57A27.58,27.58,0,0,0,822.69,573q4.17,6.82,12.84,11.07t21.52,4.23q15.44,0,27.19-5.67t21-17.83q9.22-12.15,16.73-31.83l15.3-40.16q-8.73,15.17-18.78,24.59T898.72,531a46.48,46.48,0,0,1-18.31,4.17q-8.61,0-12.43-3.62t-3.83-10.45q0-8.47,4.79-20.36t14.89-32.79q10.24-21,15.44-33.88t5.19-22.27q0-7.92-4.58-12.09t-14.82-4.16a37.27,37.27,0,0,0-22.27,6.83,45.74,45.74,0,0,0-14.69,17.21A46.66,46.66,0,0,0,843,440.32q0,10.65,5.53,17.48t16.19,6.83V466q-11.75,0-17.83-7.1t-6.08-18.31a49.63,49.63,0,0,1,21-39.42,39.73,39.73,0,0,1,23.23-7q15.16,0,21.86,5.67t6.69,16.05a59,59,0,0,1-3.42,18.24,171.78,171.78,0,0,1-8.26,20.42q-4.84,10.13-12.77,25.28-9.57,18.3-14,28.48T870.71,525q0,8.75,9.7,8.74,7.25,0,18.38-5T922.7,510q12.76-13.8,22.61-38.25l28.82-75.41h9.29L931.23,532.94q-10.79,28.14-29,42.42t-45.22,14.28Q843.52,589.64,834.44,585.13Z" transform="translate(-559.96 -363.84)" fill="none" stroke="#ce5a67" stroke-miterlimit="10" stroke-width="14"/><path d="M980.07,527.34a139.71,139.71,0,0,0,21.45-22.06q10.32-13,26.57-35.87-10.78-12-24.18-12v-1.5q14.63,0,26.37,10.52,16.26-22.82,28.28-37.37a144.44,144.44,0,0,1,25.21-24.31q13.17-9.76,26.16-9.77l-53,138h-9.56a126,126,0,0,0-4.58-34.9q-4.58-15.92-12.64-26.3-15.44,21.45-26.43,34.84a139,139,0,0,1-22.61,22.26q-11.62,8.88-22.54,8.88v-1.36Q968.94,536.36,980.07,527.34Zm66.19-38.46a98.31,98.31,0,0,1,7.38,27.67l44.54-115.17q-10,2.73-20.63,12.3a178.2,178.2,0,0,0-20.49,21.92q-9.84,12.38-24.59,32.72A65.78,65.78,0,0,1,1046.26,488.88Z" transform="translate(-559.96 -363.84)" fill="none" stroke="#ce5a67" stroke-miterlimit="10" stroke-width="14"/><line x1="0.34" y1="149.23" x2="165.22" y2="0.37" fill="#1e1717" stroke="#231f20" stroke-miterlimit="10"/><line x1="223.35" y1="269.98" x2="0.34" y2="149.23" fill="#1e1717" stroke="#231f20" stroke-miterlimit="10"/><line x1="785.85" y1="154.34" x2="641.77" y2="12.2" fill="#1e1717" stroke="#231f20" stroke-miterlimit="10"/><line x1="590.98" y1="269.64" x2="785.85" y2="154.34" fill="#1e1717" stroke="#231f20" stroke-miterlimit="10"/><rect x="1031.61" y="497.57" width="215.82" height="1" transform="translate(-316.79 996.28) rotate(-67.49)" fill="#1e1717" stroke="#231f20" stroke-miterlimit="10"/></svg>